# xmcd
#
# Track frame offsets:
# 150
# 20492
# 38398
# 57372
# 79632
# 91804
# 106884
# 125571
# 143950
# 159880
# 171816
# 187625
# 210764
# 231519
#
# Disc length: 3305 seconds
#
#
# Revision: 0
# Processed by: cddbd v1.5.2PL0 Copyright (c) Steve Scherf et al.
# Submitted via: FreeRIP 2.944 
#
DISCID=a10ce70e
DTITLE=Caio Mesquita - Sertanejo 
DYEAR=2008
DGENRE=Country
TTITLE0=Adoro Amar Você
TTITLE1=Choram As Rosas
TTITLE2=O Grande Amor Da Minha Vida
TTITLE3=Evidências
TTITLE4=Dormi Na Praça
TTITLE5=Fogão De Lenha
TTITLE6=No Rancho Fundo
TTITLE7=Dois Corações e Uma História
TTITLE8=Fada
TTITLE9=Pense Em Mim
TTITLE10=Não Aprendi Dizer Adeus
TTITLE11=Nem Dormindo Consigo Te Esquecer
TTITLE12=Por Um Minuto
TTITLE13=É o Amor
EXTD=
EXTT0=
EXTT1=
EXTT2=
EXTT3=
EXTT4=
EXTT5=
EXTT6=
EXTT7=
EXTT8=
EXTT9=
EXTT10=
EXTT11=
EXTT12=
EXTT13=
PLAYORDER=
